<svg version="1.1" id="Layer_1" xmlns="http://www.w3.org/2000/svg" xmlns:xlink="http://www.w3.org/1999/xlink" x="0px" y="0px" width="100%" viewBox="0 0 1024 1024" enable-background="new 0 0 1024 1024" xml:space="preserve">
<style>
  :root { color: #000000; }
  @media (prefers-color-scheme: dark) { :root { color: #ffffff; } }
</style>
<path fill="currentColor" opacity="1.000000" stroke="none" d="
M129.552429,527.629883
	C131.238312,498.698975 139.348907,471.905243 150.459259,445.847717
	C164.569366,412.754700 182.933365,382.017090 202.710648,352.124115
	C208.635590,343.168671 211.996292,333.400970 215.559601,323.575775
	C229.329773,285.606903 247.015610,249.728714 271.904358,217.684052
	C316.575165,160.169846 374.162384,122.528282 445.120117,105.838882
	C502.533295,92.335182 559.178711,94.489960 614.402893,116.314400
	C621.528625,119.130486 627.845825,119.562569 635.022827,117.512001
	C648.502136,113.660782 662.466736,112.235657 676.302734,110.235603
	C681.091125,109.543419 685.155212,111.276260 688.546814,114.612938
	C706.132019,131.913376 723.040283,149.864548 739.756531,167.998413
	C742.837830,171.340942 743.905640,175.534119 744.272949,179.924728
	C744.518738,182.862579 745.503601,185.212616 747.793152,187.318878
	C776.706543,213.917328 800.301941,244.381226 815.428528,280.953979
	C815.868225,282.017120 816.530457,283.008698 817.203308,283.952087
	C846.658325,325.245300 866.977600,370.854767 880.612122,419.503815
	C889.733032,452.047974 895.018250,485.219360 893.172241,519.156250
	C891.591858,548.210938 885.084412,575.828979 867.360901,599.779358
	C864.870422,603.144836 861.944702,606.122803 858.669312,608.712769
	C856.722778,610.251892 854.569641,612.004456 851.921143,610.201965
	C849.434875,608.510010 849.789734,606.076111 850.357483,603.465759
	C853.347412,589.719360 854.266602,575.791748 853.698547,561.751892
	C853.617920,559.759216 853.554443,557.767639 852.480347,555.439514
	C847.090271,570.610168 839.775452,584.367676 831.270264,597.568542
	C828.224670,602.295593 829.215393,608.260925 828.404968,613.649231
	C823.593384,645.639526 814.413147,676.048645 795.962891,703.019043
	C777.184692,730.468872 752.357422,749.476868 719.284485,756.578918
	C713.556763,757.808838 707.782471,758.394836 701.922913,758.228210
	C699.018799,758.145630 696.004883,758.084900 694.651550,754.984619
	C693.105896,751.443726 695.835327,749.429993 698.021606,747.419128
	C703.169800,742.683777 707.709045,737.493042 711.635193,730.248352
	C701.729980,734.780640 692.770691,738.600281 683.188049,740.731628
	C675.533447,742.434204 667.884277,744.096375 660.019897,744.205383
	C657.022888,744.247009 655.027222,745.499756 653.325378,747.794250
	C650.348389,751.808105 647.304077,755.770630 643.628601,759.205933
	C636.562317,765.810242 628.216309,768.310791 618.764282,766.684692
	C604.306335,764.197510 591.364502,757.469421 578.068481,751.753601
	C576.538879,751.096008 575.009583,750.430847 573.448242,749.855652
	C570.047729,748.602966 567.482483,749.590149 566.218811,753.022644
	C564.263428,758.333862 562.505066,763.717285 560.622559,769.055786
	C559.449158,772.383362 561.634705,773.454224 564.070801,774.544373
	C582.188721,782.651733 599.914001,791.510803 616.439392,802.581787
	C626.826721,809.540588 637.153992,816.624268 645.284851,826.314758
	C652.305603,834.682007 653.523376,844.454102 646.712219,852.904053
	C635.281616,867.084778 635.034729,884.316833 631.668701,900.769348
	C631.247375,902.828918 632.552490,904.252197 633.687256,905.671936
	C636.703613,909.445984 639.847168,913.120117 642.805969,916.937988
	C645.335022,920.201355 646.196350,923.820679 644.113525,927.667603
	C642.138672,931.315063 638.853760,932.400330 634.885742,932.395508
	C603.222351,932.357178 571.558960,932.368652 539.895569,932.403809
	C536.648438,932.407410 533.707214,931.663391 530.809143,930.152710
	C518.691528,923.835999 506.721649,917.266968 494.959351,910.304199
	C488.630157,906.557556 484.526672,901.368774 482.048096,894.428345
	C475.494995,876.078491 468.553436,857.867615 461.916870,839.547058
	C460.235046,834.904297 457.394409,831.580017 453.177124,829.095764
	C428.739227,814.700195 403.072113,802.707520 377.646820,790.235901
	C365.835022,784.441956 353.984009,778.701721 342.860046,771.617126
	C340.061768,769.834961 336.611847,768.200012 337.118347,764.211975
	C337.647278,760.046875 341.471954,759.040283 344.813354,758.034729
	C352.338379,755.770264 360.130127,754.863098 367.907471,754.041016
	C371.250122,753.687744 372.743683,752.079163 372.592499,748.899841
	C372.410492,745.073120 369.362732,746.147400 367.313629,746.258179
	C353.274109,747.016785 339.494598,749.245117 326.412567,754.632874
	C315.216217,759.243958 314.567261,764.166077 324.370850,771.313538
	C337.757080,781.072876 352.724030,788.106506 367.403107,795.617798
	C390.832794,807.606689 414.419861,819.291016 436.864777,833.122803
	C443.281464,837.077209 447.685059,842.248962 450.199463,849.306763
	C455.787964,864.993347 461.841705,880.521606 467.091248,896.318604
	C469.875732,904.697754 474.419464,911.067932 482.123047,915.336670
	C488.385345,918.806824 494.524261,922.500793 500.693268,926.137390
	C502.067902,926.947815 503.894104,927.212769 504.524261,928.998413
	C504.307953,930.177856 503.409058,930.214478 502.616028,930.092102
	C487.644653,927.782166 473.303619,923.826111 460.991089,914.404541
	C457.297760,911.578308 454.804413,908.159363 453.235413,903.703918
	C448.091370,889.096619 442.430908,874.669495 437.396515,860.026123
	C435.091125,853.320374 431.106812,848.777405 425.011475,845.191956
	C403.302307,832.421814 380.802246,821.185730 358.331451,809.871765
	C348.661316,805.002930 339.130188,799.858154 329.529541,794.850891
	C328.112885,794.112061 326.660828,793.441162 324.396057,792.333252
	C326.288025,803.022766 328.107788,812.787476 329.720306,822.586304
	C330.907837,829.802612 331.918304,837.051575 332.826965,844.308655
	C333.384521,848.761292 331.407196,852.244141 328.358643,855.459412
	C323.340851,860.751587 318.627197,866.332214 313.509949,872.101501
	C349.276581,886.163574 385.032104,902.887695 420.654510,920.527283
	C419.137451,922.397583 418.164673,921.893616 417.215973,921.687439
	C374.815948,912.474609 333.670349,899.080444 292.955170,884.282043
	C285.308105,881.502686 283.987732,873.295471 290.105164,867.397156
	C297.061310,860.690186 304.058350,854.014648 311.285706,847.605225
	C314.277679,844.951782 315.112549,842.094788 314.599670,838.333984
	C311.470428,815.387756 306.834808,792.732971 301.352600,770.252563
	C298.542236,758.728577 301.280975,751.111694 311.336151,744.598389
	C321.928986,737.736755 333.967255,735.006348 346.137360,732.881592
	C353.505096,731.595337 360.938782,730.457581 368.471405,730.674561
	C372.905273,730.802246 375.391785,728.883728 375.502625,724.322693
	C375.688873,716.661499 375.848572,708.999695 376.000244,701.337708
	C376.031189,699.774963 375.702728,698.262207 374.233673,697.437378
	C363.697083,691.521484 354.594452,683.830505 346.170105,674.193970
	C344.398376,678.916748 345.026093,682.948669 345.807892,686.893127
	C346.944824,692.629272 348.967316,698.082581 351.547089,703.350037
	C354.998352,710.396790 352.728455,713.912170 344.760101,713.233887
	C324.140656,711.478638 305.167694,704.629028 287.518799,693.950745
	C285.824036,692.925354 284.132385,691.894897 281.615814,691.472656
	C283.109863,693.883423 284.641937,696.271606 286.086487,698.711731
	C287.338257,700.826111 289.170319,702.937744 287.166687,705.532227
	C285.340149,707.897278 282.699615,707.630920 280.261780,707.120911
	C271.066711,705.197327 262.386688,701.770386 254.149170,697.326355
	C210.441406,673.746826 180.825714,638.444824 165.945282,590.944397
	C165.249207,588.722412 164.557083,586.498962 163.827728,584.287903
	C163.738312,584.016785 163.428131,583.818481 162.892181,583.220154
	C160.978195,592.347107 160.888809,601.223816 161.760956,610.135620
	C161.988098,612.456665 162.973206,615.121399 160.407196,616.436646
	C157.755386,617.795959 156.129074,615.234863 154.579239,613.674194
	C140.474655,599.471924 133.856659,581.666809 130.836349,562.406067
	C129.060394,551.080750 127.854309,539.607788 129.552429,527.629883
M468.256927,634.085938
	C465.880798,624.552612 463.512665,615.017395 462.576447,605.201355
	C462.034363,599.517883 460.586823,594.238220 457.476593,589.263977
	C452.608368,581.478027 449.137726,572.965820 446.143555,564.287720
	C445.715729,563.047668 444.549957,561.609314 446.615570,559.942383
	C455.276917,571.399597 464.237335,582.483826 475.231201,591.723816
	C486.398132,601.109192 498.471893,608.822205 512.689514,613.267517
	C512.563293,612.642944 512.593933,612.275635 512.429199,612.052795
	C487.212036,577.952393 479.535614,538.660034 479.315948,497.452423
	C479.221985,479.830994 481.492310,462.280060 484.503021,444.839081
	C491.985229,401.494873 506.462646,360.858429 530.197937,323.682251
	C530.947021,322.509033 531.277893,320.771118 534.058289,320.773438
	C517.031311,362.941193 503.162781,405.682220 498.804199,451.227570
	C528.440247,436.874420 552.183350,415.101105 575.747803,392.491608
	C576.624939,395.137238 575.314453,396.189545 574.536621,397.358398
	C566.300293,409.734558 556.973389,421.241791 546.632935,431.914490
	C533.634827,445.330200 518.644043,456.046570 501.886017,464.242371
	C498.095856,466.095978 495.814545,468.418060 495.662842,472.859436
	C495.492676,477.840271 494.608917,482.796387 494.431152,487.777405
	C493.358551,517.832458 496.380371,547.311646 507.473206,575.553528
	C514.753418,594.088440 524.461670,610.996948 540.520630,623.512817
	C541.657837,624.399170 543.088196,625.205017 542.766296,627.191772
	C541.028870,629.426514 538.437134,629.224487 535.988953,629.203125
	C517.750854,629.044128 500.883118,623.906799 485.023285,615.107605
	C483.524963,614.276306 482.234467,612.568054 480.079376,613.509033
	C479.893280,613.985168 479.617065,614.431152 479.558777,614.904053
	C479.478607,615.554565 479.486969,616.237427 479.588287,616.885986
	C483.505310,641.956543 490.671173,665.885986 504.393799,687.517273
	C505.097290,688.626160 506.272491,690.084595 506.007812,691.043579
	C505.001251,694.691223 507.579315,695.673462 509.808960,697.082947
	C528.262207,708.748962 546.910400,720.079651 566.307251,730.133484
	C582.436890,738.493835 598.676575,746.642029 616.165527,751.821716
	C625.481995,754.580933 633.344299,752.488525 639.646545,744.370667
	C646.791260,735.167603 654.318115,726.229797 662.562378,717.955994
	C675.498596,704.973450 688.628418,692.181091 701.427063,679.065002
	C718.540710,661.526794 730.896790,641.261169 735.337891,616.810608
	C738.401733,599.942444 740.986938,582.977600 747.320374,566.899475
	C747.389832,566.723145 747.048523,566.385010 746.912598,566.146362
	C745.291565,565.694458 744.041199,568.260986 742.115845,566.500732
	C744.860962,560.895020 747.579041,555.220459 750.414612,549.605286
	C751.881409,546.700806 751.325623,544.588928 748.531311,542.892212
	C746.532166,541.678345 744.585999,540.540100 742.234741,540.000122
	C735.990417,538.566345 735.572754,538.720154 734.536133,545.139282
	C732.728821,556.331604 728.903931,566.709717 722.225281,575.935364
	C719.459473,579.755920 716.231506,582.655640 710.896301,581.233521
	C705.471985,579.787598 701.122314,577.617188 699.729858,571.316711
	C698.236450,564.559692 699.354797,558.085938 700.436646,551.521973
	C700.570557,550.709290 700.751648,549.882629 700.160706,549.318420
	C698.651917,548.374695 697.222046,550.516174 695.702454,549.059814
	C695.341553,546.230896 697.165344,544.122437 698.553284,541.952637
	C711.453918,521.785156 741.238159,514.672974 762.044312,526.892090
	C765.567932,528.961426 767.676880,528.705322 769.552307,524.937317
	C772.377136,519.262085 775.039673,513.534485 777.171631,507.560577
	C782.721069,492.010895 780.512390,489.147003 763.700806,489.854340
	C751.515564,490.367065 739.612915,492.909241 727.595215,494.632599
	C725.887329,494.877502 724.086670,495.855652 721.945984,493.940430
	C725.428894,488.632782 730.299011,485.023621 735.984497,482.699188
	C750.909119,476.597626 765.697144,475.796051 779.894043,485.440796
	C781.166443,468.496887 773.912292,424.638794 767.862671,412.393951
	C758.557190,435.363892 746.547119,456.586548 731.493652,476.037170
	C719.175293,491.953766 705.094604,506.054565 688.130066,517.058960
	C685.488892,518.772278 682.962708,521.068237 679.362671,521.021545
	C679.405212,520.370789 679.303955,519.953796 679.467957,519.743225
	C680.280579,518.699341 681.114014,517.662781 682.028625,516.708435
	C698.307983,499.721619 713.575745,481.940765 726.655701,462.294983
	C759.846008,412.443665 773.318298,358.326355 762.983093,298.815918
	C762.495239,296.006561 760.836609,292.951080 762.374634,289.776337
	C764.658569,290.552429 764.781494,292.385193 765.354126,293.859619
	C774.978149,318.638245 778.560547,344.422546 776.764526,370.793243
	C776.093140,380.650940 776.845276,389.891022 779.715698,399.277039
	C793.230774,443.470856 798.471985,488.458679 791.230835,534.399902
	C785.215454,572.564514 771.902832,607.726685 747.045898,637.906982
	C745.206299,640.140564 743.468445,642.458130 741.181274,645.377441
	C745.085083,645.245544 747.384277,643.416870 749.864197,642.302551
	C772.240845,632.247131 793.086853,620.006226 809.054871,600.766785
	C834.354736,570.283630 846.661255,534.918396 848.870972,495.696869
	C849.145691,490.821411 849.660095,485.959442 850.063477,481.091248
	C850.583069,481.043915 851.102661,480.996613 851.622314,480.949280
	C860.691589,505.792999 866.497559,531.395264 868.360352,557.967590
	C869.092102,556.698975 869.516418,555.458191 869.880188,554.199890
	C870.203369,553.081909 870.484680,551.950256 870.741150,550.814819
	C876.573914,524.997070 876.878601,498.838287 873.334717,472.861176
	C865.882385,418.236450 847.422241,367.299896 819.435608,319.796844
	C802.718994,291.422852 781.096985,267.874481 752.447205,251.192352
	C747.604187,248.372375 742.745422,245.492981 737.251221,243.801224
	C731.984741,251.563324 727.093384,259.127014 720.957031,265.725159
	C714.715698,272.436249 708.278320,278.946899 701.103027,284.704773
	C693.686523,290.656250 689.043579,290.822449 681.378967,285.290802
	C655.856445,266.870880 633.269287,245.223312 611.987305,222.155258
	C609.636414,219.607162 607.412720,218.534103 603.785339,218.853165
	C579.180908,221.017273 556.220764,228.753448 534.305237,239.600784
	C468.829529,272.008789 424.216248,323.909332 394.801758,389.877167
	C393.607758,392.555023 393.478333,394.863495 394.927704,397.420624
	C398.207581,403.207153 398.645477,409.213867 397.032135,415.740173
	C395.158569,423.319092 393.755035,431.050842 392.726288,438.793182
	C391.267303,449.773590 389.296204,460.570862 392.072845,471.931366
	C396.608521,490.488983 396.764771,509.463715 394.507477,528.487427
	C393.668243,535.560242 391.293182,542.513855 392.370026,549.784607
	C400.464844,604.440918 429.185150,644.858032 476.894104,672.139587
	C478.475861,673.044067 480.074005,674.489807 482.717773,673.418823
	C476.740448,660.829468 471.717010,648.169312 468.256927,634.085938
M243.070389,671.414490
	C248.830780,675.367065 254.489410,679.498840 261.949951,683.066772
	C256.924591,667.909241 251.612457,654.274536 253.461853,638.922424
	C272.171143,667.663757 297.439240,686.985046 330.630005,695.904785
	C331.184814,693.430481 330.064880,692.260986 329.317383,691.025818
	C320.887115,677.096130 313.595184,662.386597 311.265808,646.359131
	C309.615356,635.002808 303.456787,630.639221 294.009338,628.007935
	C293.849243,627.963318 293.698761,627.883606 293.538239,627.841370
	C267.209442,620.909119 249.627853,603.487976 237.373474,580.157104
	C224.523132,555.691528 219.526337,529.537170 221.533295,501.905548
	C223.006943,481.616516 228.324219,462.564178 238.358719,444.935028
	C252.052444,420.877106 271.108551,403.477661 299.096466,397.751678
	C301.748047,397.209198 302.453827,395.376770 303.255280,393.337830
	C307.337006,382.954010 311.587006,372.633240 315.475159,362.177734
	C317.525635,356.663818 321.074646,353.100800 326.781494,352.065033
	C329.470825,351.576935 330.725067,350.254913 331.713776,347.879578
	C336.263458,336.948883 341.639099,326.417175 347.349274,316.047119
	C352.355560,306.955383 355.752533,305.214447 366.020996,307.669769
	C369.479828,308.496796 371.283325,307.875153 373.208527,304.686218
	C387.556213,280.920197 404.192474,258.899628 423.900787,239.260010
	C463.771820,199.528046 510.728424,172.326828 565.518982,158.885147
	C569.666931,157.867538 574.034912,157.666626 578.420654,155.705322
	C576.936340,150.099915 575.677185,144.547562 579.908447,139.556259
	C583.825256,134.935898 590.236511,134.410400 594.619629,130.613663
	C593.906555,129.195831 592.643677,129.002594 591.585938,128.675903
	C570.642395,122.207970 549.202698,118.295815 527.321228,117.414200
	C490.822449,115.943665 455.281158,121.407341 420.747955,133.335342
	C369.854065,150.914429 327.543030,180.810242 293.286133,222.241592
	C270.674500,249.588760 253.136932,280.043945 240.570648,313.065216
	C231.571487,336.712860 220.207520,358.734375 206.223145,379.800049
	C187.958450,407.313446 172.434189,436.450134 160.745087,467.465851
	C150.541992,494.538544 144.455963,522.348633 146.259384,551.491089
	C146.633118,557.530457 147.096970,563.588379 149.246735,569.467285
	C156.483246,526.864258 171.765564,487.445221 193.907120,450.121490
	C195.572464,452.033203 194.830109,453.098541 194.451248,454.158295
	C188.668854,470.333191 184.190720,486.864258 180.638657,503.668091
	C175.699097,527.035828 173.871445,550.488953 179.045029,574.025085
	C187.906250,614.337341 209.798447,646.220581 243.070389,671.414490
M494.462341,827.191650
	C496.647125,850.230164 510.371918,868.367371 521.924500,888.319885
	C519.000427,888.111694 518.309814,887.142090 517.560852,886.272705
	C509.513641,876.931763 501.639435,867.453003 494.373871,857.480652
	C492.772644,855.282837 491.745361,852.895691 491.109070,850.266785
	C487.624084,835.867859 483.797607,821.543823 480.677704,807.067078
	C478.555145,797.218201 475.671783,788.251709 466.321075,782.736816
	C463.936737,781.330627 462.222351,778.835815 460.016388,777.070862
	C453.936218,772.206299 452.635132,765.833130 454.176361,758.663330
	C454.715973,756.152893 454.947540,753.765442 454.389801,751.273987
	C453.190430,745.916382 451.586578,740.603699 450.934052,735.178162
	C449.308594,721.663208 444.318726,710.324890 432.103241,703.113586
	C427.845703,700.600220 426.406372,696.580078 425.705048,691.894470
	C423.438873,676.755371 420.935120,661.651855 418.527832,646.533875
	C418.022369,643.359253 416.892151,640.575317 414.741516,638.028564
	C408.174133,630.251282 402.388367,621.905518 397.368378,613.031250
	C396.426666,611.366577 395.811157,609.280029 393.417786,608.592163
	C388.972443,612.746094 384.678101,617.159729 379.943237,621.035217
	C377.039825,623.411560 376.443787,625.255676 377.827087,628.976868
	C383.395020,643.954956 391.151886,657.891968 391.800476,674.873108
	C393.007874,706.482788 392.027924,737.749146 385.850006,768.788513
	C384.343048,776.359985 384.269989,776.269470 391.197693,779.628906
	C414.428223,790.893982 437.725525,802.028992 460.162415,814.851685
	C468.621246,819.685974 474.186829,826.519470 477.413422,835.919922
	C483.735382,854.338440 490.827393,872.492615 497.586273,890.761475
	C498.480194,893.177734 499.775391,895.126465 502.183563,896.394287
	C512.793823,901.980225 523.343079,907.681824 533.922668,913.326111
	C535.548218,914.193420 537.241943,914.830139 539.146240,914.825500
	C550.975647,914.796814 562.805115,914.803345 574.634521,914.776978
	C575.431335,914.775208 576.330566,914.808594 576.810303,913.397522
	C575.502136,911.583435 574.133362,909.514893 572.595886,907.580505
	C561.393860,893.486633 549.390381,880.080872 537.257690,866.795349
	C534.093140,863.330078 531.920471,859.666870 531.756714,854.880066
	C531.368713,843.532776 531.913269,832.211121 533.306641,820.972656
	C535.642212,802.134399 539.152893,783.498108 544.655273,765.299622
	C545.711487,761.806396 544.976501,759.586670 542.265503,757.086426
	C521.808960,738.221680 502.118988,718.558960 482.441437,698.890198
	C471.141479,687.595337 460.087555,676.088013 446.328033,667.598572
	C442.250946,665.083069 438.792358,661.575439 434.986359,658.604370
	C433.741730,657.632812 432.753967,656.039001 430.666870,656.346924
	C429.652588,658.789368 430.340179,661.216858 430.703278,663.636841
	C431.888031,671.533997 433.233856,679.411072 434.213470,687.333435
	C434.790649,692.001526 436.164642,695.821106 440.277740,698.691162
	C444.082062,701.345825 447.297241,704.828796 450.945923,707.727966
	C453.421478,709.694946 455.012543,711.970886 455.617157,715.105225
	C456.782593,721.147034 458.696564,727.097351 459.296539,733.184570
	C460.618652,746.597351 466.326813,756.967346 478.015198,764.027649
	C486.003052,768.852539 487.297028,776.672058 486.001434,785.031677
	C485.520599,788.134338 485.772186,790.974060 486.454590,793.860352
	C489.020081,804.711304 491.681335,815.539612 494.462341,827.191650
M276.826721,426.318604
	C268.604095,432.492279 261.721741,439.920288 256.417206,448.719177
	C237.770462,479.649445 234.064621,512.713379 243.117325,547.312561
	C248.732971,568.775452 258.892151,587.604126 277.420258,600.901001
	C296.069458,614.284851 318.287109,614.466309 337.117767,601.400208
	C352.225372,590.917358 361.185272,575.899475 367.911041,559.263794
	C375.945038,539.392334 377.679352,518.624390 376.814972,497.467651
	C376.161377,481.469818 372.850250,466.120941 365.749725,451.700378
	C358.465607,436.906921 348.226715,424.790527 332.710175,418.355042
	C312.978119,410.171234 294.552521,413.924835 276.826721,426.318604
M595.408264,198.422562
	C593.394226,191.701004 589.625000,185.728745 587.186340,179.199463
	C585.964172,175.927322 584.256409,175.157455 580.748535,175.812347
	C540.721191,183.285217 504.909027,200.318634 471.746307,223.448914
	C470.957123,223.999390 469.976074,224.452057 469.849762,226.198761
	C472.864990,226.537567 475.986847,226.599609 478.957092,227.302475
	C481.991272,228.020493 485.601013,226.696396 488.222534,229.421112
	C487.180450,231.685669 485.175568,232.367203 483.564819,233.442673
	C444.528778,259.507050 413.425903,293.045990 389.262695,333.182495
	C387.467468,336.164459 386.776428,341.508240 382.596344,340.974335
	C378.681488,340.474304 378.216156,335.253723 376.583710,331.891571
	C375.668182,330.005981 375.640411,327.741211 373.397247,326.480469
	C364.753448,321.622375 361.529816,322.370850 357.051636,330.945801
	C354.201416,336.403412 351.587708,341.990479 349.046906,347.600555
	C348.121429,349.643951 346.771423,351.683960 347.317688,354.581329
	C359.528168,358.591309 370.049866,365.721924 379.352692,374.700806
	C380.179779,373.923981 380.625427,373.654358 380.858948,373.259338
	C381.705658,371.826965 382.536591,370.379974 383.275452,368.889893
	C401.802551,331.526398 425.507812,297.981903 456.423096,269.765961
	C491.465118,237.783630 531.159729,214.265854 577.661438,203.087982
	C583.462402,201.693573 589.509644,201.365738 595.408264,198.422562
M778.099731,641.709167
	C766.232788,646.809692 753.984619,650.430725 740.992188,650.959351
	C738.233093,651.071533 736.882935,652.519653 735.697571,654.742676
	C731.684998,662.267639 726.724609,669.151001 721.279846,675.708679
	C707.184753,692.684937 690.128174,706.743347 675.062439,722.759705
	C673.749207,724.155823 671.866455,725.168762 671.280701,727.966064
	C699.295654,723.088318 721.174988,708.404907 740.196167,688.104065
	C740.266541,706.539490 734.119263,722.606873 724.429504,738.068298
	C761.625610,730.406982 808.525024,665.067871 806.800903,623.764893
	C797.979858,630.854126 788.882324,636.941528 778.099731,641.709167
M627.047852,210.456543
	C645.549683,230.868866 665.539429,249.681091 687.160400,266.776245
	C690.186279,269.168732 692.196228,269.397125 695.215515,266.764130
	C708.202942,255.438431 718.607971,242.167679 726.202087,226.717911
	C727.662781,223.746140 728.925232,220.624435 728.884644,217.176346
	C728.790466,209.181168 729.275330,201.128021 728.455811,193.209076
	C727.827515,187.138107 728.732056,180.471985 723.733948,175.318405
	C711.671326,162.880798 699.367310,150.638962 687.964172,137.614731
	C681.149231,129.830887 674.353149,127.111443 663.794800,129.019867
	C641.879028,132.981110 620.567017,138.463943 600.141296,147.348557
	C597.716248,148.403381 596.145325,149.620224 597.241455,152.608780
	C604.688171,172.912125 611.345886,193.612305 627.047852,210.456543
M597.854492,886.254333
	C596.695557,894.428589 594.272949,902.576477 597.392517,910.835632
	C597.970459,912.365845 598.127014,914.518372 600.148621,914.578186
	C606.328186,914.761169 612.516724,914.644653 619.617188,914.644653
	C616.340576,909.883789 614.452271,905.951477 615.165344,901.117798
	C617.036011,888.437378 619.390991,875.868042 622.534607,863.433228
	C623.912720,857.981812 626.206055,853.245605 629.933716,848.966492
	C636.526855,841.397949 636.144043,838.823853 628.736328,831.968323
	C612.922913,817.333496 594.354248,806.918823 575.421936,797.068909
	C569.265442,793.865784 563.078491,790.684021 556.588806,788.360291
	C553.034851,794.227112 553.338318,795.422791 559.058411,798.129639
	C577.334167,806.778076 594.537537,817.191040 610.551514,829.530029
	C616.450745,834.075500 616.584229,836.698608 611.515869,842.164978
	C609.115967,844.753357 606.966675,847.370911 605.988403,850.906860
	C602.837402,862.295898 599.865479,873.719482 597.854492,886.254333
M361.536377,415.945007
	C367.375183,421.261169 372.288696,427.415680 377.379272,434.746063
	C378.973145,426.470825 380.281036,419.463623 381.687012,412.476166
	C382.348480,409.188843 381.582672,406.254150 380.048431,403.371735
	C374.724213,393.368866 367.672821,384.852905 358.289215,378.438812
	C351.081665,373.512146 343.373383,369.682831 334.424316,369.152649
	C332.220490,369.022064 329.965454,368.942657 328.937592,371.495728
	C325.672455,379.606232 322.008331,387.576599 319.612213,396.697845
	C335.461517,399.011810 349.350281,404.876007 361.536377,415.945007
M346.151672,621.617737
	C361.735657,618.202393 373.500397,609.295898 382.389954,596.313904
	C386.373199,590.496948 385.715118,582.904846 380.454865,576.728088
	C370.363922,595.895142 356.944458,611.815186 336.483002,622.602234
	C338.985321,622.602234 339.984558,622.701782 340.955719,622.579041
	C342.432648,622.392395 343.890137,622.051697 346.151672,621.617737
M751.393921,608.519897
	C762.007263,590.673706 767.835571,571.126343 772.778992,550.704041
	C769.333557,551.173706 768.357056,553.266296 767.344116,555.049561
	C761.740784,564.914185 756.932739,575.165344 754.440979,586.278625
	C752.792175,593.632080 749.919434,600.846924 751.393921,608.519897
M756.903748,223.583557
	C753.672607,220.047073 750.872192,216.051224 746.429565,212.772690
	C745.900330,216.878723 745.518982,219.998825 745.088196,223.112106
	C744.876953,224.638916 744.689331,226.044647 746.395142,226.978439
	C753.763855,231.012238 761.102905,235.100159 769.372742,239.677612
	C765.518433,233.538651 761.522522,228.768005 756.903748,223.583557
z" data-index="0"></path>
<path fill="currentColor" opacity="1.000000" stroke="none" d="
M642.739746,472.286591
	C629.301331,467.215118 616.369141,461.906036 602.949524,457.869202
	C593.026978,454.884277 582.939026,452.879761 572.714966,451.475830
	C567.728699,450.791138 562.859802,450.997040 558.112610,453.388245
	C553.356445,455.784058 548.137207,457.104706 542.925354,458.247467
	C541.220703,458.621246 539.382080,459.534760 537.704163,457.822266
	C537.255737,455.122559 539.677246,454.669830 541.193115,453.680115
	C564.568665,438.417969 586.410583,421.278168 605.549255,400.874634
	C629.390137,375.458069 648.822815,347.270844 659.664978,313.760834
	C659.858826,313.161743 660.258911,312.625000 660.598633,312.081573
	C660.658997,311.984955 660.896667,311.999176 662.040771,311.727905
	C676.157288,380.859131 679.014893,448.997375 647.641968,516.070190
	C669.333130,505.538849 685.482971,489.788788 701.999451,473.719055
	C702.092468,495.569214 646.120483,538.927246 623.185913,535.509033
	C621.914917,533.179932 623.884705,531.831238 624.934509,530.309021
	C635.242004,515.361755 642.562378,499.059265 647.728271,481.674500
	C649.237183,476.596619 648.338623,473.659760 642.739746,472.286591
M590.575439,442.779755
	C613.334656,445.388611 634.628052,451.206390 649.655334,470.872375
	C658.114380,449.355713 660.738342,379.170898 653.845276,361.988220
	C633.806091,393.329010 608.910156,419.790436 578.625610,441.754120
	C582.761108,442.121613 586.221558,442.429138 590.575439,442.779755
z" data-index="1"></path>
<path fill="currentColor" opacity="1.000000" stroke="none" d="
M538.489258,524.213867
	C536.822632,516.559509 537.438721,509.278687 538.284607,501.833771
	C534.275818,500.628510 530.832214,502.169586 527.376465,503.000000
	C524.720459,503.638275 525.076477,506.007233 525.328186,507.953308
	C525.855042,512.026794 526.581787,516.074402 527.200806,519.971863
	C525.324585,521.156372 524.287903,520.082581 523.265320,519.358398
	C519.968689,517.023743 516.995361,514.230957 514.977844,510.781494
	C511.357849,504.591980 507.520844,498.705231 501.716095,494.256927
	C500.246429,493.130676 498.521790,491.274292 499.499786,489.111053
	C500.599792,486.677917 503.014008,487.078033 505.204926,487.433136
	C516.762268,489.306122 527.535950,484.741791 538.701782,483.442352
	C560.587158,480.895416 582.509766,479.382385 603.937317,486.876343
	C612.907043,490.013428 620.246582,495.331238 626.443909,502.591644
	C620.930481,502.944000 616.539124,498.581604 610.764709,499.192230
	C611.954041,506.722290 614.760010,513.935608 613.762146,522.262329
	C605.485168,514.491272 598.514343,504.855804 585.681396,503.854919
	C585.188049,508.787170 584.846130,513.554688 584.209290,518.282532
	C583.006592,527.210815 579.577148,535.244324 574.144043,542.445679
	C571.099854,546.480530 567.232910,547.997803 562.312805,546.742676
	C562.151367,546.701538 561.989258,546.645325 561.825134,546.635437
	C547.927124,545.796021 540.395691,538.232605 538.489258,524.213867
z" data-index="2"></path>
<path fill="currentColor" opacity="1.000000" stroke="none" d="
M705.704102,615.521790
	C701.392639,621.649780 696.816467,626.938293 689.802734,630.485535
	C689.217041,627.070618 690.981628,625.338745 692.207886,623.524963
	C695.658386,618.421814 699.002441,613.294434 701.367798,607.549744
	C702.384399,605.080627 702.155518,603.289246 700.544434,601.174316
	C697.313049,596.932373 694.545471,592.343872 692.969299,587.213379
	C692.375916,585.281860 691.391602,583.123413 692.689392,581.127808
	C693.573242,580.644775 694.218994,580.974792 694.547363,581.544678
	C698.455933,588.328308 703.083740,594.584473 707.817139,600.819153
	C711.581604,605.777649 708.168091,610.607727 705.704102,615.521790
z" data-index="3"></path>
<path fill="currentColor" opacity="1.000000" stroke="none" d="
M641.639282,666.983887
	C646.041687,667.643311 649.996216,668.195984 653.927429,668.882324
	C655.297302,669.121399 656.605652,669.871033 656.310791,671.533020
	C656.073975,672.867615 654.788452,673.282104 653.569885,673.208374
	C645.600464,672.726257 637.642212,672.100220 629.643311,672.764038
	C628.121033,672.890381 626.486450,672.073059 626.349548,670.315491
	C626.179932,668.135864 628.015625,667.557739 629.715027,667.435974
	C633.529907,667.162659 637.358948,667.086243 641.639282,666.983887
z" data-index="4"></path>
<path fill="currentColor" opacity="1.000000" stroke="none" d="
M247.625229,498.779663
	C250.195770,478.537476 256.583466,460.416260 271.135529,446.089935
	C286.646606,430.819489 307.781677,430.965149 323.285980,446.265289
	C335.016357,457.841278 340.661652,472.427246 343.653259,488.251038
	C348.221008,512.411499 345.097260,535.567444 334.318298,557.665405
	C330.703156,565.076782 325.737793,571.498108 319.701660,577.120728
	C302.865234,592.803711 279.125763,590.497375 264.652100,571.746765
	C252.692230,556.252747 248.003586,538.251953 246.837341,519.147705
	C246.433197,512.527344 246.278519,505.828949 247.625229,498.779663
M292.528595,473.196686
	C290.503845,480.061646 288.177582,486.856476 286.558960,493.815887
	C285.455658,498.559601 282.841217,501.274933 278.584473,503.203522
	C274.455444,505.074249 270.035675,506.617798 266.374817,510.327393
	C271.197754,513.469482 275.555206,516.512024 280.118256,519.206238
	C282.943237,520.874268 284.443726,523.117371 285.072693,526.245056
	C286.187042,531.786438 287.326904,537.329102 288.706024,542.808289
	C289.517395,546.031860 289.292114,549.615662 291.978333,553.361084
	C294.328705,544.855225 296.681946,537.255981 298.473450,529.526672
	C299.628479,524.543274 302.027863,521.294922 306.882355,519.382874
	C311.609497,517.520935 316.049347,514.929565 321.325745,512.305115
	C315.567291,509.064545 310.605316,506.070953 305.454315,503.448547
	C302.341095,501.863586 300.739136,499.700165 300.119080,496.246887
	C298.479858,487.117920 296.531250,478.044556 294.518158,468.014008
	C293.709839,470.113678 293.245697,471.319305 292.528595,473.196686
z" data-index="5"></path>
<path fill="currentColor" opacity="1.000000" stroke="none" d="
M616.816284,160.039825
	C615.245850,156.272705 616.697876,154.311951 619.887573,153.150436
	C637.299011,146.810135 655.164612,142.287415 673.504883,139.619461
	C676.197998,139.227692 678.295166,139.878250 680.239136,141.865280
	C691.995605,153.881943 703.798828,165.853409 715.666199,177.760483
	C718.010681,180.112823 719.387268,182.594849 719.559570,186.029282
	C719.858887,191.997162 720.474182,197.959274 721.208496,203.892685
	C722.136230,211.389404 719.843567,217.877640 715.987244,224.179535
	C709.941162,234.059830 702.551453,242.761154 694.242981,250.771988
	C692.085571,252.852112 690.445068,252.834915 688.299805,250.869324
	C668.523376,232.749222 649.550903,213.838104 632.067627,193.481766
	C628.790466,189.666046 627.571899,184.606552 625.460266,180.103241
	C622.424316,173.628525 619.765320,166.977051 616.816284,160.039825
M674.422119,166.878357
	C674.054688,169.173782 673.484558,171.458389 673.361389,173.766846
	C673.089050,178.866425 670.543152,181.321167 665.500366,182.237595
	C660.391968,183.165909 655.143555,183.891403 649.304382,186.389938
	C656.574707,189.578796 662.903931,192.463791 669.324646,195.128250
	C672.899048,196.611542 675.235779,198.815887 676.756836,202.554672
	C680.164307,210.930359 684.110596,219.086792 688.315979,228.391068
	C689.516235,219.603989 690.716064,212.091293 691.489441,204.534973
	C691.800110,201.500000 693.129883,200.201294 695.878662,199.423294
	C699.312744,198.451355 702.977234,197.908066 706.200012,195.403687
	C702.806396,191.673950 698.542603,189.694656 694.560913,187.469193
	C690.418945,185.154129 687.729309,182.179352 686.075623,177.622345
	C683.560059,170.690353 680.285767,164.033737 677.146484,156.830536
	C674.931885,160.076996 675.544800,163.264084 674.422119,166.878357
z" data-index="6"></path>
</svg>